<svg xmlns="http://www.w3.org/2000/svg" width="25" height="25" viewBox="0 0 25 25" fill="none">
  <path d="M20.3095 8.32193L12.5001 15.9344L4.69073 8.32193C4.5512 8.18565 4.3639 8.10935 4.16885 8.10935C3.97381 8.10935 3.78651 8.18565 3.64698 8.32193C3.57942 8.38813 3.52575 8.46714 3.48911 8.55433C3.45247 8.64153 3.43359 8.73516 3.43359 8.82975C3.43359 8.92433 3.45247 9.01796 3.48911 9.10516C3.52575 9.19235 3.57942 9.27136 3.64698 9.33756L11.9548 17.4376C12.1007 17.5798 12.2964 17.6594 12.5001 17.6594C12.7038 17.6594 12.8995 17.5798 13.0454 17.4376L21.3532 9.33912C21.4213 9.27288 21.4753 9.19367 21.5123 9.10619C21.5492 9.0187 21.5682 8.9247 21.5682 8.82975C21.5682 8.73479 21.5492 8.64079 21.5123 8.5533C21.4753 8.46582 21.4213 8.38661 21.3532 8.32037C21.2137 8.18409 21.0264 8.10779 20.8314 8.10779C20.6363 8.10779 20.449 8.18409 20.3095 8.32037V8.32193Z" fill="black"/>
</svg>