<svg xmlns="http://www.w3.org/2000/svg" width="26" height="26" viewBox="0 0 26 26" fill="none">
  <path d="M4.08989 10.2102C4.02936 10.1498 3.98133 10.0781 3.94856 9.99911C3.91579 9.92015 3.89893 9.83549 3.89893 9.74999C3.89893 9.66449 3.91579 9.57984 3.94856 9.50087C3.98133 9.4219 4.02936 9.35017 4.08989 9.28979L7.98989 5.38979C8.05027 5.32926 8.12199 5.28123 8.20096 5.24847C8.27993 5.2157 8.36459 5.19883 8.45009 5.19883C8.53558 5.19883 8.62024 5.2157 8.69921 5.24847C8.77818 5.28123 8.84991 5.32926 8.91029 5.38979L12.8103 9.28979C12.8707 9.35022 12.9187 9.42197 12.9514 9.50093C12.9841 9.57989 13.0009 9.66452 13.0009 9.74999C13.0009 9.83546 12.9841 9.92009 12.9514 9.99905C12.9187 10.078 12.8707 10.1498 12.8103 10.2102C12.7499 10.2706 12.6781 10.3186 12.5991 10.3513C12.5202 10.384 12.4356 10.4008 12.3501 10.4008C12.2646 10.4008 12.18 10.384 12.101 10.3513C12.0221 10.3186 11.9503 10.2706 11.8899 10.2102L9.10009 7.41909V20.15C9.10009 20.3224 9.0316 20.4877 8.90971 20.6096C8.78781 20.7315 8.62248 20.8 8.45009 20.8C8.2777 20.8 8.11237 20.7315 7.99047 20.6096C7.86857 20.4877 7.80009 20.3224 7.80009 20.15L7.80009 7.41909L5.01029 10.2102C4.94991 10.2707 4.87818 10.3187 4.79921 10.3515C4.72024 10.3843 4.63559 10.4012 4.55009 10.4012C4.46459 10.4012 4.37993 10.3843 4.30096 10.3515C4.222 10.3187 4.15027 10.2707 4.08989 10.2102ZM13.1899 15.7898C13.2503 15.7293 13.322 15.6812 13.401 15.6485C13.4799 15.6157 13.5646 15.5988 13.6501 15.5988C13.7356 15.5988 13.8202 15.6157 13.8992 15.6485C13.9782 15.6812 14.0499 15.7293 14.1103 15.7898L16.9001 18.5809V5.84999C16.9001 5.6776 16.9686 5.51227 17.0905 5.39037C17.2124 5.26847 17.3777 5.19999 17.5501 5.19999C17.7225 5.19999 17.8878 5.26847 18.0097 5.39037C18.1316 5.51227 18.2001 5.6776 18.2001 5.84999V18.5809L20.9899 15.7898C21.1119 15.6677 21.2775 15.5992 21.4501 15.5992C21.6227 15.5992 21.7882 15.6677 21.9103 15.7898C22.0323 15.9118 22.1009 16.0774 22.1009 16.25C22.1009 16.4226 22.0323 16.5881 21.9103 16.7102L18.0103 20.6102C17.9499 20.6707 17.8782 20.7187 17.7992 20.7515C17.7202 20.7843 17.6356 20.8011 17.5501 20.8011C17.4646 20.8011 17.3799 20.7843 17.301 20.7515C17.222 20.7187 17.1503 20.6707 17.0899 20.6102L13.1899 16.7102C13.1294 16.6498 13.0813 16.5781 13.0486 16.4991C13.0158 16.4201 12.9989 16.3355 12.9989 16.25C12.9989 16.1645 13.0158 16.0798 13.0486 16.0009C13.0813 15.9219 13.1294 15.8502 13.1899 15.7898Z" fill="black"/>
</svg>