<svg xmlns="http://www.w3.org/2000/svg" width="27" height="27" viewBox="0 0 27 27" fill="none">
  <path d="M24.2215 16.2785L21.9375 13.9944V10.9688C21.9349 8.8778 21.1571 6.86209 19.7544 5.31139C18.3518 3.76069 16.424 2.78516 14.3438 2.57344V0.84375H12.6562V2.57344C10.576 2.78516 8.64824 3.76069 7.24559 5.31139C5.84295 6.86209 5.06512 8.8778 5.0625 10.9688V13.9944L2.77847 16.2785C2.62022 16.4367 2.5313 16.6512 2.53125 16.875V19.4062C2.53125 19.63 2.62014 19.8446 2.77838 20.0029C2.93661 20.1611 3.15122 20.25 3.375 20.25H9.28125V21.0938C9.28125 22.2126 9.72572 23.2857 10.5169 24.0769C11.3081 24.868 12.3811 25.3125 13.5 25.3125C14.6189 25.3125 15.6919 24.868 16.4831 24.0769C17.2743 23.2857 17.7188 22.2126 17.7188 21.0938V20.25H23.625C23.8488 20.25 24.0634 20.1611 24.2216 20.0029C24.3799 19.8446 24.4688 19.63 24.4688 19.4062V16.875C24.4687 16.6512 24.3798 16.4367 24.2215 16.2785ZM16.0312 21.0938C16.0312 21.7651 15.7646 22.4089 15.2899 22.8836C14.8152 23.3583 14.1713 23.625 13.5 23.625C12.8287 23.625 12.1848 23.3583 11.7101 22.8836C11.2354 22.4089 10.9688 21.7651 10.9688 21.0938V20.25H16.0312V21.0938Z" fill="#0D0B19"/>
</svg>