<svg xmlns="http://www.w3.org/2000/svg" width="21" height="21" viewBox="0 0 21 21" fill="none">
  <path d="M10.8127 5.59367C11.021 5.40617 11.271 5.29158 11.5418 5.29158C11.8231 5.29158 12.0627 5.40617 12.2814 5.59367C12.4793 5.81242 12.5835 6.06242 12.5835 6.33325C12.5835 6.6145 12.4793 6.85408 12.2814 7.07283C12.0627 7.27075 11.8231 7.37492 11.5418 7.37492C11.271 7.37492 11.021 7.27075 10.8127 7.07283C10.6147 6.85408 10.5002 6.6145 10.5002 6.33325C10.5002 6.06242 10.6147 5.81242 10.8127 5.59367ZM8.2085 10.4687C8.2085 10.4687 10.4689 8.677 11.2918 8.60408C12.0627 8.54158 11.9064 9.427 11.8335 9.88533L11.8231 9.94783C11.6772 10.4999 11.5002 11.1666 11.3231 11.802C10.9272 13.2499 10.5418 14.6666 10.6356 14.927C10.7397 15.2812 11.3856 14.8333 11.8543 14.5208C11.9168 14.4791 11.9689 14.4374 12.021 14.4062C12.021 14.4062 12.1043 14.3228 12.1877 14.4374C12.2085 14.4687 12.2293 14.4999 12.2502 14.5208C12.3439 14.6666 12.396 14.7187 12.271 14.802L12.2293 14.8228C12.0002 14.9791 11.021 15.6666 10.6252 15.9166C10.1981 16.1978 8.56266 17.1353 8.81266 15.3124C9.03141 14.0312 9.32308 12.927 9.55225 12.0624C9.97933 10.4999 10.1668 9.79158 9.2085 10.4062C8.82308 10.6353 8.59391 10.7812 8.4585 10.8749C8.34391 10.9583 8.3335 10.9583 8.26058 10.8228L8.22933 10.7603L8.17725 10.677C8.10433 10.5728 8.10433 10.5624 8.2085 10.4687ZM20.9168 10.4999C20.9168 16.2291 16.2293 20.9166 10.5002 20.9166C4.771 20.9166 0.0834961 16.2291 0.0834961 10.4999C0.0834961 4.77075 4.771 0.083252 10.5002 0.083252C16.2293 0.083252 20.9168 4.77075 20.9168 10.4999ZM18.8335 10.4999C18.8335 5.89575 15.1043 2.16659 10.5002 2.16659C5.896 2.16659 2.16683 5.89575 2.16683 10.4999C2.16683 15.1041 5.896 18.8333 10.5002 18.8333C15.1043 18.8333 18.8335 15.1041 18.8335 10.4999Z" fill="#0D0B19"/>
</svg>