<svg width="20" height="20" viewBox="0 0 20 20" fill="none" xmlns="http://www.w3.org/2000/svg">
<path d="M19.9969 11.1825C19.9988 10.7713 19.9341 9.21969 19.8847 8.77594C19.3159 3.68313 15.1825 -0.0131226 10.0569 -0.0131226C4.71813 -0.0131226 0.392527 4.10063 0.0990698 9.55532C0.0928198 9.67438 0.0490698 10.5191 0.0459448 11.0219L0.0443823 11.3016C0.0187378 11.4172 0.00311279 11.5366 0.00311279 11.6597V15.8522C0.00311279 16.7678 0.7478 17.5125 1.66343 17.5125H3.34874C4.26436 17.5125 5.00934 16.7678 5.00934 15.8522V11.66C5.00934 10.7444 4.26403 9.99969 3.34872 9.99969H1.66311C1.55038 9.99971 1.43793 10.0111 1.32749 10.0338C1.33686 9.83096 1.3453 9.67094 1.34751 9.6225C1.60469 4.84157 5.39313 1.23688 10.0569 1.23688C14.535 1.23688 18.1453 4.46625 18.6422 8.915C18.6631 9.10063 18.69 9.5725 18.7115 10.0463C18.5906 10.0181 18.4659 9.99967 18.3365 9.99967H16.6709C15.7553 9.99967 15.0106 10.7444 15.0106 11.66V15.8331C15.0106 16.4653 15.37 17.01 15.8913 17.29L11.8788 18.8653V18.7634C11.8788 18.4184 11.5988 18.1384 11.2538 18.1384H9.37878C9.03376 18.1384 8.75378 18.4184 8.75378 18.7634V19.3884C8.75378 19.7334 9.03376 20.0134 9.37878 20.0134H11.2538C11.2591 20.0134 11.2638 20.0119 11.2691 20.0119L12.3894 20.0075L18.826 17.4806C18.9104 17.4456 18.9819 17.3934 19.0407 17.3309C19.6041 17.065 19.9975 16.4962 19.9975 15.8331V11.66C19.9975 11.5581 19.985 11.459 19.9672 11.3624C19.9844 11.3049 19.9966 11.2453 19.9969 11.1824L19.9969 11.1825ZM1.66313 11.2497H3.34848C3.57505 11.2497 3.75909 11.4334 3.75909 11.66V15.8525C3.75909 16.0791 3.57471 16.2628 3.34844 16.2628H1.66315C1.43659 16.2628 1.25286 16.079 1.25286 15.8525V11.66C1.25315 11.4334 1.43688 11.2497 1.66313 11.2497ZM16.2603 11.66C16.2603 11.4334 16.4441 11.2497 16.6707 11.2497H18.3363C18.5629 11.2497 18.7469 11.4334 18.7469 11.66V15.8331C18.7469 16.0597 18.5625 16.2434 18.3363 16.2434H16.6707C16.4441 16.2434 16.2603 16.0597 16.2603 15.8331V11.66Z" fill="#F8F8F8"/>
</svg>
