<svg xmlns="http://www.w3.org/2000/svg" width="19" height="19" viewBox="0 0 19 19" fill="none">
  <path d="M17.7999 9.97129L16.6124 4.33771C16.383 3.10865 15.4998 2.375 14.25 2.375H4.75C4.12657 2.375 3.59961 2.54904 3.1877 2.8923C2.77578 3.23557 2.506 3.72021 2.38688 4.33549L1.19938 9.97129C1.19136 10.0116 1.18738 10.0526 1.1875 10.0938V14.25C1.1875 14.8799 1.43773 15.484 1.88312 15.9294C2.32852 16.3748 2.93261 16.625 3.5625 16.625H15.4375C16.0674 16.625 16.6715 16.3748 17.1169 15.9294C17.5623 15.484 17.8125 14.8799 17.8125 14.25V10.0938C17.8124 10.0526 17.8082 10.0116 17.7999 9.97129ZM3.54989 4.57559V4.5652C3.68162 3.88127 4.06237 3.56324 4.74815 3.56324H14.25C14.9406 3.56324 15.3214 3.88053 15.4475 4.56186C15.4475 4.56668 15.4494 4.5715 15.4501 4.57633L16.4495 9.32188C16.454 9.3435 16.4536 9.36586 16.4484 9.38732C16.4432 9.40879 16.4333 9.42882 16.4194 9.44596C16.4054 9.4631 16.3878 9.47691 16.3679 9.48639C16.3479 9.49587 16.3261 9.50077 16.304 9.50074H11.875C11.7184 9.49995 11.568 9.56134 11.4566 9.67141C11.3453 9.78149 11.2822 9.93126 11.2813 10.0878C11.2813 10.5602 11.0936 11.0133 10.7595 11.3473C10.4255 11.6814 9.97242 11.8691 9.5 11.8691C9.02759 11.8691 8.57452 11.6814 8.24047 11.3473C7.90642 11.0133 7.71875 10.5602 7.71875 10.0878C7.71836 10.0102 7.7027 9.93348 7.67265 9.86195C7.6426 9.79043 7.59875 9.72552 7.54362 9.67093C7.48848 9.61635 7.42314 9.57316 7.35131 9.54383C7.27949 9.5145 7.20259 9.49961 7.125 9.5H2.696C2.67391 9.50003 2.65209 9.49512 2.63214 9.48565C2.61218 9.47617 2.59459 9.46236 2.58065 9.44522C2.56672 9.42808 2.55678 9.40805 2.55157 9.38658C2.54636 9.36511 2.546 9.34275 2.55053 9.32113L3.54989 4.57559Z" fill="black"/>
</svg>