<svg xmlns="http://www.w3.org/2000/svg" width="23" height="20" viewBox="0 0 23 20" fill="none">
  <g clip-path="url(#clip0_779_201)">
    <path d="M22.4922 9.97461C22.4922 10.8887 21.9062 11.6047 21.2422 11.6047H19.9922L20.0195 19.7398C20.0195 19.877 20.0117 20.0141 20 20.1512V20.9688C20 22.091 19.3008 23 18.4375 23H17.8125C17.7695 23 17.7266 23 17.6836 22.9949C17.6289 23 17.5742 23 17.5195 23H15.3125C14.4492 23 13.75 22.091 13.75 20.9688V16.5C13.75 15.6012 13.1914 14.875 12.5 14.875H9.99999C9.30859 14.875 8.75 15.6012 8.75 16.5V20.9688C8.75 22.091 8.05078 23 7.1875 23H5.0039C4.94531 23 4.88672 22.9949 4.82812 22.9898C4.78125 22.9949 4.73437 23 4.6875 23H4.0625C3.19922 23 2.5 22.091 2.5 20.9688V15.2812C2.5 15.2355 2.5 15.1848 2.5039 15.1391V11.6047H1.25C0.546875 11.6047 0 10.8938 0 9.97461C0 9.51758 0.117187 9.11133 0.390625 8.75586L10.4062 -2.59375C10.6797 -2.94922 10.9922 -3 11.2656 -3C11.5391 -3 11.8516 -2.89844 12.0859 -2.64453L22.0625 8.75586C22.375 9.11133 22.5312 9.51758 22.4922 9.97461Z" fill="#0D0B19" fill-opacity="0.56"/>
  </g>
  <defs>
    <clipPath id="clip0_779_201">
      <rect width="22.5" height="20" fill="white"/>
    </clipPath>
  </defs>
</svg>