<svg xmlns="http://www.w3.org/2000/svg" width="20" height="25" viewBox="0 0 20 25" fill="none">
  <g clip-path="url(#clip0_384_672)">
    <path fill-rule="evenodd" clip-rule="evenodd" d="M2.5 4.16665C2.5 3.61411 2.67559 3.08421 2.98816 2.69351C3.30072 2.30281 3.72464 2.08331 4.16667 2.08331H5.83333C6.13667 2.08331 6.42167 2.18436 6.66667 2.36248C6.91988 2.17915 7.20738 2.08284 7.5 2.08331H9.16667C9.7725 2.08331 10.3033 2.48748 10.595 3.09269C10.77 2.91769 10.975 2.78436 11.205 2.70727L12.815 2.16873C13.0264 2.09784 13.247 2.0797 13.464 2.11536C13.681 2.15102 13.8903 2.23977 14.0799 2.37655C14.2695 2.51333 14.4357 2.69545 14.569 2.91252C14.7022 3.12959 14.8 3.37735 14.8567 3.64165L18.3067 19.7406C18.3634 20.0049 18.3779 20.2806 18.3494 20.5519C18.3208 20.8231 18.2498 21.0848 18.1404 21.3218C18.031 21.5587 17.8853 21.7665 17.7116 21.9331C17.538 22.0997 17.3398 22.2219 17.1283 22.2927L15.5183 22.8312C15.3069 22.9021 15.0864 22.9203 14.8693 22.8846C14.6523 22.8489 14.443 22.7602 14.2534 22.6234C14.0638 22.4866 13.8976 22.3045 13.7644 22.0874C13.6311 21.8704 13.5333 21.6226 13.4767 21.3583L10.8333 9.02394V20.8333C10.8333 21.3859 10.6577 21.9158 10.3452 22.3065C10.0326 22.6972 9.60869 22.9167 9.16667 22.9167H7.5C7.20738 22.9171 6.91988 22.8208 6.66667 22.6375C6.41346 22.8208 6.12595 22.9171 5.83333 22.9167H4.16667C3.72464 22.9167 3.30072 22.6972 2.98816 22.3065C2.67559 21.9158 2.5 21.3859 2.5 20.8333V4.16665ZM4.16667 4.16665H5.83333V20.8333H4.16667V4.16665ZM9.16667 20.8333H7.5V4.16665H9.16667V20.8333ZM11.6358 4.71977L13.2458 4.18123L16.6975 20.2802L15.0875 20.8187L11.6358 4.71977Z" fill="#0D0B19"/>
  </g>
  <defs>
    <clipPath id="clip0_384_672">
      <rect width="20" height="25" fill="white"/>
    </clipPath>
  </defs>
</svg>