<svg xmlns="http://www.w3.org/2000/svg" width="25" height="25" viewBox="0 0 25 25" fill="none">
  <path d="M20.979 13.9087L20.9839 13.9111C21.0596 13.4497 21.0962 12.9785 21.0962 12.5122C21.0962 12.0947 21.0645 11.6748 21.0059 11.2646C21.0645 11.6724 21.0938 12.085 21.0938 12.4976C21.0938 12.9712 21.0547 13.4448 20.979 13.9087ZM2.41699 9.71924C2.40479 9.70947 2.39502 9.69971 2.38281 9.6875C2.3999 9.70459 2.41699 9.72168 2.43652 9.73877L4.03564 11.1035V11.1011L2.41699 9.71924ZM15.5176 4.4458H15.52L15.1416 2.3999C15.1367 2.37549 15.1318 2.35352 15.1245 2.33154C15.127 2.34375 15.1318 2.3584 15.1343 2.37061L15.5176 4.4458ZM16.8359 17.7881L17.6025 17.1582L19.8682 17.9614C20.2832 17.4023 20.6323 16.8018 20.9082 16.1645L19.0845 14.6045L19.2456 13.6255C19.3066 13.2568 19.3384 12.8784 19.3384 12.5C19.3384 12.1216 19.3066 11.7432 19.2456 11.3745L19.0869 10.4004L20.9106 8.84033C20.6323 8.20557 20.2856 7.60254 19.8706 7.04346L17.605 7.84668L16.8384 7.2168C16.2549 6.73828 15.603 6.3623 14.9023 6.09863L13.9722 5.74951L13.5352 3.38135C12.8456 3.30322 12.1495 3.30322 11.46 3.38135L11.023 5.75439L10.0977 6.10352C9.40186 6.36719 8.75488 6.74316 8.17627 7.21924L7.40967 7.85156L5.1294 7.04102C4.71436 7.6001 4.36523 8.20068 4.08936 8.83789L5.93262 10.4126L5.77393 11.3892C5.71289 11.7529 5.68359 12.1265 5.68359 12.5C5.68359 12.8711 5.71533 13.2471 5.77393 13.6108L5.93262 14.5874L4.08936 16.1621C4.36768 16.7969 4.71436 17.3999 5.1294 17.959L7.40967 17.1484L8.17627 17.7808C8.75488 18.2568 9.40186 18.6328 10.0977 18.8965L11.0205 19.2505L11.4575 21.6235C12.146 21.7017 12.8467 21.7017 13.5327 21.6235L13.9697 19.2554L14.8999 18.9062C15.603 18.6426 16.2524 18.2666 16.8359 17.7881ZM12.5122 16.5601C11.7676 16.5601 11.0669 16.3696 10.4541 16.0352C9.11377 15.3076 8.20313 13.8892 8.20313 12.2559C8.20313 9.88281 10.127 7.95898 12.5 7.95898C14.1333 7.95898 15.5518 8.86963 16.2793 10.21C16.6138 10.8203 16.8042 11.521 16.8042 12.2681C16.8042 14.6387 14.8828 16.5601 12.5122 16.5601ZM5.05859 19.8437C4.92432 19.8901 4.78516 19.8999 4.65332 19.873C4.79248 19.9023 4.93897 19.8975 5.08057 19.8486L7.06787 19.1406C7.06543 19.1382 7.06055 19.1357 7.05811 19.1333L5.05859 19.8437ZM22.5781 9.71924L20.979 11.0864C20.979 11.0913 20.9814 11.0986 20.9814 11.1035L22.5781 9.73877C22.7515 9.58984 22.8491 9.375 22.8516 9.15283C22.8442 9.36768 22.7466 9.57519 22.5781 9.71924Z" fill="black" fill-opacity="0.15"/>
  <path d="M22.8467 15.7861C22.8589 15.9009 22.8467 16.0181 22.8052 16.1304L22.7832 16.1938C22.3419 17.4237 21.6827 18.5642 20.8374 19.5605L20.7935 19.6118C20.691 19.7329 20.5542 19.8199 20.4011 19.8613C20.2481 19.9028 20.086 19.8966 19.9365 19.8438L17.9517 19.1382C17.2235 19.7381 16.401 20.2133 15.5176 20.5444L15.1343 22.6196C15.1054 22.7758 15.0296 22.9194 14.9171 23.0315C14.8046 23.1436 14.6607 23.2188 14.5044 23.2471L14.4385 23.2593C13.8004 23.3746 13.1533 23.4326 12.5049 23.4326H12.5122C13.1641 23.4326 13.8159 23.374 14.4507 23.2593L14.5166 23.2471C14.6729 23.2188 14.8168 23.1436 14.9293 23.0315C15.0418 22.9194 15.1176 22.7758 15.1465 22.6196L15.5298 20.5469C16.4136 20.2148 17.229 19.7437 17.9614 19.1431L19.9438 19.8486C20.0933 19.9015 20.2554 19.9076 20.4085 19.8662C20.5615 19.8248 20.6984 19.7378 20.8008 19.6167L20.8447 19.5654C21.6943 18.562 22.3462 17.4316 22.7881 16.2036L22.8101 16.1401C22.8491 16.0254 22.8613 15.9033 22.8467 15.7861Z" fill="black" fill-opacity="0.15"/>
  <path d="M16.7969 12.2559C16.7969 11.5161 16.6089 10.8179 16.2793 10.21C15.5518 8.86963 14.1333 7.95898 12.5 7.95898C10.127 7.95898 8.20312 9.88281 8.20312 12.2559C8.20312 13.8892 9.11377 15.3076 10.4541 16.0352C11.062 16.3647 11.7578 16.5527 12.5 16.5527C14.873 16.5527 16.7969 14.6289 16.7969 12.2559ZM9.76562 12.2559C9.76562 11.5259 10.0513 10.8398 10.5664 10.3223C11.084 9.80469 11.77 9.52148 12.5 9.52148C13.23 9.52148 13.916 9.80469 14.4336 10.3223C14.6879 10.5759 14.8896 10.8773 15.027 11.2091C15.1645 11.5409 15.2349 11.8967 15.2344 12.2559C15.2344 12.9858 14.9487 13.6719 14.4336 14.1895C14.18 14.4438 13.8786 14.6455 13.5468 14.7829C13.2149 14.9203 12.8592 14.9908 12.5 14.9902C11.77 14.9902 11.084 14.7046 10.5664 14.1895C10.3121 13.9358 10.1104 13.6345 9.97296 13.3026C9.83553 12.9708 9.76507 12.615 9.76562 12.2559Z" fill="black" fill-opacity="0.42"/>
  <path d="M14.5044 23.2471C14.6607 23.2188 14.8046 23.1436 14.9171 23.0315C15.0296 22.9194 15.1054 22.7758 15.1343 22.6196L15.5176 20.5444C16.401 20.2133 17.2235 19.7381 17.9517 19.1382L19.9365 19.8437C20.086 19.8966 20.2481 19.9028 20.4011 19.8613C20.5542 19.8199 20.691 19.7329 20.7935 19.6118L20.8374 19.5605C21.687 18.5571 22.3413 17.4243 22.7832 16.1938L22.8052 16.1304C22.8467 16.0181 22.8589 15.9009 22.8467 15.7861C22.8247 15.5933 22.7319 15.4102 22.5781 15.2759L20.9839 13.9111L20.979 13.9087C21.0547 13.4448 21.0938 12.9712 21.0938 12.4976C21.0938 12.085 21.0645 11.6699 21.0059 11.2646C20.9985 11.2109 20.9888 11.1572 20.9815 11.1035C20.9815 11.0986 20.979 11.0913 20.979 11.0864L22.5781 9.71924C22.7466 9.57519 22.8442 9.36767 22.8516 9.15283C22.854 9.05517 22.8394 8.95508 22.8052 8.85986L22.7832 8.79639C22.343 7.56598 21.6838 6.42538 20.8374 5.42969L20.7935 5.37842C20.6908 5.25769 20.5539 5.17091 20.401 5.12951C20.248 5.08811 20.0861 5.09402 19.9365 5.14648L17.9517 5.85205C17.2192 5.25146 16.4038 4.77783 15.52 4.4458H15.5176L15.1343 2.37061C15.1318 2.3584 15.1294 2.34375 15.1245 2.33154C15.0893 2.18393 15.0119 2.04975 14.9018 1.94529C14.7917 1.84084 14.6537 1.77061 14.5044 1.74316L14.4385 1.73096C13.1665 1.50146 11.8286 1.50146 10.5566 1.73096L10.4907 1.74316C10.3345 1.77148 10.1905 1.84666 10.078 1.95873C9.96551 2.07081 9.88976 2.21446 9.86084 2.37061L9.4751 4.45557C8.59837 4.78767 7.78191 5.26105 7.05811 5.85693L5.0586 5.14648C4.9091 5.09361 4.74705 5.08748 4.59399 5.1289C4.44092 5.17033 4.30409 5.25736 4.20167 5.37842L4.15772 5.42969C3.31237 6.42608 2.65327 7.5665 2.21192 8.79639L2.18995 8.85986C2.13907 9.00175 2.13021 9.1553 2.16442 9.3021C2.19863 9.4489 2.27446 9.58272 2.38282 9.6875C2.39502 9.69726 2.40479 9.70947 2.417 9.71924L4.03565 11.1011V11.1035C3.95997 11.5625 3.92334 12.0288 3.92334 12.4951C3.92334 12.9639 3.95997 13.4326 4.03565 13.8892L2.417 15.271C2.29638 15.3743 2.21005 15.5118 2.1695 15.6653C2.12894 15.8188 2.13607 15.981 2.18995 16.1304L2.21192 16.1938C2.65381 17.4243 3.30811 18.5596 4.15772 19.5605L4.20167 19.6118C4.32129 19.751 4.47999 19.8413 4.65333 19.873C4.78516 19.8975 4.92432 19.8901 5.0586 19.8437L7.05811 19.1333C7.06055 19.1357 7.06543 19.1382 7.06788 19.1406C7.79297 19.7339 8.60108 20.2051 9.4751 20.5347L9.86084 22.6196C9.88976 22.7758 9.96551 22.9194 10.078 23.0315C10.1905 23.1436 10.3345 23.2188 10.4907 23.2471L10.5566 23.2593C11.1939 23.374 11.8457 23.4326 12.4976 23.4326H12.5049C13.1543 23.4326 13.8062 23.374 14.4385 23.2593L14.5044 23.2471ZM13.5327 21.6235C12.8432 21.7017 12.147 21.7017 11.4575 21.6235L11.0205 19.2505L10.0977 18.8965C9.40186 18.6328 8.75489 18.2568 8.17627 17.7808L7.40967 17.1484L5.1294 17.959C4.71436 17.3999 4.36768 16.7969 4.08936 16.1621L5.93262 14.5874L5.77393 13.6108C5.71534 13.2471 5.6836 12.8711 5.6836 12.5C5.6836 12.1265 5.7129 11.7529 5.77393 11.3892L5.93262 10.4126L4.08936 8.83789C4.36524 8.20068 4.71436 7.6001 5.1294 7.04101L7.40967 7.85156L8.17627 7.21924C8.75489 6.74316 9.40186 6.36719 10.0977 6.10351L11.023 5.75439L11.46 3.38135C12.146 3.30322 12.8467 3.30322 13.5352 3.38135L13.9722 5.74951L14.9023 6.09863C15.603 6.3623 16.2549 6.73828 16.8384 7.2168L17.605 7.84668L19.8706 7.04346C20.2857 7.60254 20.6323 8.20557 20.9106 8.84033L19.0869 10.4004L19.2456 11.3745C19.3066 11.7432 19.3384 12.1216 19.3384 12.5C19.3384 12.8784 19.3066 13.2568 19.2456 13.6255L19.0845 14.6045L20.9082 16.1645C20.6317 16.8015 20.2828 17.4044 19.8682 17.9614L17.6025 17.1582L16.8359 17.7881C16.2524 18.2666 15.603 18.6426 14.8999 18.9062L13.9697 19.2554L13.5327 21.6235Z" fill="black" fill-opacity="0.42"/>
</svg>