<svg xmlns="http://www.w3.org/2000/svg" width="28" height="28" viewBox="0 0 28 28" fill="none">
  <path d="M12.845 3.55836C7.595 4.13003 3.5 8.5867 3.5 14C3.5 16.7848 4.60625 19.4555 6.57538 21.4247C8.54451 23.3938 11.2152 24.5 14 24.5C19.4017 24.5 23.8583 20.4167 24.4417 15.1667C24.5467 14.245 23.5317 13.51 22.645 14.0584C21.6926 14.6663 20.5943 15.007 19.4651 15.0449C18.3359 15.0829 17.2172 14.8166 16.2262 14.274C15.2352 13.7314 14.4082 12.9323 13.8318 11.9605C13.2555 10.9887 12.9509 9.87989 12.95 8.75003C12.95 7.51336 13.3117 6.3467 13.93 5.37836C14.455 4.5967 13.8833 3.4767 12.845 3.55836Z" fill="#858585"/>
</svg>