<svg xmlns="http://www.w3.org/2000/svg" width="27" height="27" viewBox="0 0 27 27" fill="none">
  <path fill-rule="evenodd" clip-rule="evenodd" d="M11.8125 4.21875C10.8153 4.21875 9.82781 4.41516 8.9065 4.79679C7.98518 5.17841 7.14805 5.73776 6.44291 6.4429C5.73776 7.14805 5.17841 7.98518 4.79679 8.90649C4.41517 9.82781 4.21875 10.8153 4.21875 11.8125C4.21875 12.8097 4.41517 13.7972 4.79679 14.7185C5.17841 15.6398 5.73776 16.4769 6.44291 17.1821C7.14805 17.8872 7.98518 18.4466 8.9065 18.8282C9.82781 19.2098 10.8153 19.4062 11.8125 19.4062C13.8265 19.4062 15.758 18.6062 17.1821 17.1821C18.6062 15.758 19.4062 13.8265 19.4062 11.8125C19.4062 9.79851 18.6062 7.86701 17.1821 6.4429C15.758 5.0188 13.8265 4.21875 11.8125 4.21875ZM2.53125 11.8125C2.53145 10.322 2.89062 8.85343 3.57839 7.53108C4.26616 6.20873 5.26228 5.07147 6.48251 4.21551C7.70274 3.35954 9.11118 2.81005 10.5887 2.61351C12.0662 2.41697 13.5693 2.57917 14.9708 3.08639C16.3724 3.5936 17.6312 4.43091 18.6407 5.52748C19.6503 6.62406 20.3808 7.94764 20.7707 9.38628C21.1605 10.8249 21.1981 12.3363 20.8804 13.7925C20.5626 15.2488 19.8987 16.6071 18.945 17.7525L24.2212 23.0287C24.3041 23.106 24.3706 23.1991 24.4167 23.3026C24.4629 23.4061 24.4877 23.5179 24.4897 23.6312C24.4917 23.7444 24.4708 23.857 24.4284 23.962C24.3859 24.0671 24.3228 24.1625 24.2427 24.2427C24.1625 24.3228 24.0671 24.3859 23.962 24.4284C23.857 24.4708 23.7444 24.4917 23.6312 24.4897C23.5179 24.4877 23.4061 24.4629 23.3026 24.4167C23.1991 24.3706 23.106 24.3041 23.0287 24.2212L17.7525 18.945C16.3971 20.0739 14.7481 20.7932 12.9986 21.0187C11.2491 21.2441 9.47162 20.9663 7.87434 20.2178C6.27705 19.4694 4.92613 18.2812 3.97984 16.7926C3.03354 15.3039 2.53106 13.5764 2.53125 11.8125Z" fill="black"/>
</svg>