<svg width="30" height="20" viewBox="0 0 30 20" fill="none" xmlns="http://www.w3.org/2000/svg">
<path opacity="0.2" d="M15.9375 7.65625C15.9375 8.86148 15.5801 10.0396 14.9105 11.0418C14.2409 12.0439 13.2892 12.8249 12.1757 13.2861C11.0622 13.7474 9.83699 13.868 8.65492 13.6329C7.47285 13.3978 6.38705 12.8174 5.53482 11.9652C4.68259 11.113 4.10222 10.0272 3.86709 8.84508C3.63196 7.66301 3.75264 6.43776 4.21386 5.32427C4.67508 4.21079 5.45613 3.25907 6.45825 2.58948C7.46036 1.91989 8.63852 1.5625 9.84375 1.5625C11.4599 1.5625 13.0099 2.20452 14.1527 3.34732C15.2955 4.49012 15.9375 6.04009 15.9375 7.65625Z" fill="#F8F8F8"/>
<path d="M13.7403 13.5062C14.9967 12.6697 15.9507 11.4511 16.461 10.0305C16.9713 8.60993 17.0109 7.06283 16.574 5.61799C16.137 4.17316 15.2467 2.90729 14.0347 2.0076C12.8226 1.1079 11.3532 0.622131 9.84378 0.622131C8.33431 0.622131 6.86492 1.1079 5.65288 2.0076C4.44085 2.90729 3.55053 4.17316 3.11357 5.61799C2.67662 7.06283 2.71623 8.60993 3.22655 10.0305C3.73687 11.4511 4.69081 12.6697 5.94729 13.5062C3.67443 14.3439 1.73335 15.8941 0.4137 17.9254C0.344343 18.0285 0.296168 18.1443 0.271974 18.2662C0.247781 18.388 0.248052 18.5135 0.272771 18.6352C0.297491 18.757 0.346166 18.8726 0.415967 18.9754C0.485768 19.0782 0.575302 19.1661 0.679367 19.234C0.783431 19.3018 0.899948 19.3483 1.02215 19.3708C1.14434 19.3932 1.26979 19.3912 1.39118 19.3647C1.51257 19.3383 1.62749 19.2879 1.72927 19.2167C1.83104 19.1454 1.91763 19.0546 1.98401 18.9496C2.83525 17.6404 4.00005 16.5645 5.37265 15.8197C6.74524 15.0749 8.28214 14.6848 9.84378 14.6848C11.4054 14.6848 12.9423 15.0749 14.3149 15.8197C15.6875 16.5645 16.8523 17.6404 17.7035 18.9496C17.841 19.154 18.0535 19.296 18.2948 19.345C18.5362 19.394 18.7872 19.3461 18.9935 19.2115C19.1998 19.0769 19.3449 18.8666 19.3974 18.6259C19.4498 18.3852 19.4055 18.1336 19.2739 17.9254C17.9542 15.8941 16.0131 14.3439 13.7403 13.5062ZM4.68753 7.65623C4.68753 6.63642 4.98994 5.63952 5.55651 4.79158C6.12309 3.94363 6.92838 3.28275 7.87057 2.89248C8.81275 2.50222 9.8495 2.40011 10.8497 2.59906C11.8499 2.79802 12.7687 3.2891 13.4898 4.01021C14.2109 4.73133 14.702 5.65009 14.901 6.6503C15.0999 7.65051 14.9978 8.68727 14.6075 9.62945C14.2173 10.5716 13.5564 11.3769 12.7084 11.9435C11.8605 12.5101 10.8636 12.8125 9.84378 12.8125C8.47673 12.8109 7.16612 12.2672 6.19947 11.3005C5.23282 10.3339 4.68908 9.02328 4.68753 7.65623ZM29.3133 19.2226C29.1051 19.3584 28.8514 19.406 28.6081 19.3548C28.3649 19.3035 28.1519 19.1578 28.016 18.9496C27.1658 17.6396 26.0012 16.5633 24.6283 15.8188C23.2554 15.0743 21.718 14.6854 20.1563 14.6875C19.9076 14.6875 19.6692 14.5887 19.4934 14.4129C19.3175 14.2371 19.2188 13.9986 19.2188 13.75C19.2188 13.5013 19.3175 13.2629 19.4934 13.0871C19.6692 12.9113 19.9076 12.8125 20.1563 12.8125C20.9156 12.8118 21.6654 12.6433 22.3521 12.3193C23.0388 11.9952 23.6455 11.5234 24.1287 10.9377C24.612 10.352 24.9599 9.66674 25.1476 8.93097C25.3353 8.1952 25.3582 7.42705 25.2147 6.68141C25.0711 5.93576 24.7646 5.23103 24.3172 4.61756C23.8697 4.00409 23.2922 3.49703 22.626 3.1326C21.9598 2.76818 21.2214 2.55539 20.4634 2.50944C19.7055 2.46349 18.9468 2.58551 18.2414 2.86678C18.1264 2.91649 18.0026 2.94265 17.8774 2.94371C17.7521 2.94477 17.6278 2.92071 17.512 2.87295C17.3962 2.82518 17.2911 2.75469 17.203 2.66563C17.1149 2.57657 17.0455 2.47075 16.999 2.35443C16.9525 2.2381 16.9297 2.11363 16.9321 1.98837C16.9345 1.8631 16.962 1.73959 17.0129 1.62512C17.0638 1.51066 17.1372 1.40756 17.2286 1.32193C17.3201 1.23629 17.4278 1.16986 17.5453 1.12655C19.1596 0.482778 20.955 0.459612 22.5853 1.06152C24.2156 1.66342 25.5652 2.84775 26.3738 4.38602C27.1824 5.92429 27.3927 7.70752 26.964 9.39168C26.5354 11.0759 25.4983 12.5416 24.0528 13.5062C26.3256 14.3439 28.2667 15.8941 29.5864 17.9254C29.7221 18.1336 29.7697 18.3873 29.7185 18.6306C29.6673 18.8738 29.5215 19.0868 29.3133 19.2226Z" fill="#F8F8F8"/>
</svg>
